@startuml
'https://plantuml.com/class-diagram

class Etablissement {

-nom : string not null
-slug : string not null
-descript° : text not null
-numTel : string not null
-adresse : string not null
-email : string not null
-image : string null
-actif : bool not null
-accueil : bool not null
-dateCreation : datetime not null
-dateModification : datetime not null

}

class Ville {

-nom : string not null
-codePostal : string not null
-nomDepartement : string not null
-numDepartement : int not null
-nomRegion : string not null

}

class Catégorie {

-nom : string not null
-dateCreation : datetime not null

}

class Utilisateur {

-prénom : string not null
-nom : string not null
-pseudo : string null
-email : string not null
-password : string not null
-createdAt : datetime not null
-updatedUp : datetime not null
-rôle : array null
-estActif : bool not null

}

Etablissement "0..* " -- "1..*  "Catégorie
Etablissement "0..* "-- "1..*"Ville
Etablissement "0..*" -- "0..*   " Utilisateur
@enduml